<svg width="257" height="221" viewBox="0 0 257 221" fill="none" xmlns="http://www.w3.org/2000/svg">
<path d="M244.712 195.782H12.2075V171.287H0V207.99H12.2075V220.278H244.712V207.99H257V171.287H244.712V195.782Z" fill="#000477"/>
<path d="M244.698 146.816H232.49V171.312H244.698V146.816Z" fill="#000477"/>
<path d="M159.103 73.4141H146.815V85.6216H159.103V73.4141Z" fill="#000477"/>
<path d="M146.818 171.287H110.115V183.495H146.818V171.287Z" fill="#000477"/>
<path d="M134.583 73.4141H122.375V85.6216H134.583V73.4141Z" fill="#000477"/>
<path d="M110.127 73.4141H97.9199V85.6216H110.127V73.4141Z" fill="#000477"/>
<path d="M220.295 0H36.7002V12.2075H220.295V0Z" fill="#000477"/>
<path d="M232.515 146.813V12.209H220.307V134.605H36.7129V12.209H24.5054V146.813H232.515Z" fill="#000477"/>
<path d="M24.4997 146.816H12.2119V171.312H24.4997V146.816Z" fill="#000477"/>
</svg>
