<svg width="254" height="258" viewBox="0 0 254 258" fill="none" xmlns="http://www.w3.org/2000/svg">
<path d="M252.295 165.335L240.421 165.502L241.134 216.258L253.008 216.091L252.295 165.335Z" fill="#000477"/>
<path d="M241.156 216.277L229.204 216.445L229.561 241.865L241.513 241.697L241.156 216.277Z" fill="#000477"/>
<path d="M240.082 140.092L228.13 140.26L228.487 165.679L240.439 165.511L240.082 140.092Z" fill="#000477"/>
<path d="M228.655 178.335L216.781 178.502L216.959 191.17L228.833 191.003L228.655 178.335Z" fill="#000477"/>
<path d="M226.865 51.3254L214.991 51.4922L215.17 64.2436L227.044 64.0768L226.865 51.3254Z" fill="#000477"/>
<path d="M229.554 241.868L27.228 244.711L27.406 257.379L229.732 254.537L229.554 241.868Z" fill="#000477"/>
<path d="M216.425 153.095L204.551 153.262L204.73 166.013L216.604 165.846L216.425 153.095Z" fill="#000477"/>
<path d="M214.829 38.841L202.955 39.0078L203.133 51.6759L215.007 51.5091L214.829 38.841Z" fill="#000477"/>
<path d="M217.13 203.933L193.304 204.268L193.482 216.936L217.308 216.601L217.13 203.933Z" fill="#000477"/>
<path d="M204.898 178.67L192.946 178.838L193.124 191.506L205.076 191.338L204.898 178.67Z" fill="#000477"/>
<path d="M203.496 77.0879L191.544 77.2559L191.722 89.924L203.674 89.756L203.496 77.0879Z" fill="#000477"/>
<path d="M192.59 153.429L180.716 153.596L180.895 166.347L192.769 166.18L192.59 153.429Z" fill="#000477"/>
<path d="M191.342 64.5891L167.516 64.9238L167.694 77.5919L191.52 77.2572L191.342 64.5891Z" fill="#000477"/>
<path d="M202.783 26.345L178.957 26.6797L179.135 39.3478L202.961 39.013L202.783 26.345Z" fill="#000477"/>
<path d="M181.094 179.004L169.142 179.172L169.32 191.84L181.272 191.672L181.094 179.004Z" fill="#000477"/>
<path d="M181.431 204.441L74.2534 205.947L74.6105 231.367L181.789 229.861L181.431 204.441Z" fill="#000477"/>
<path d="M168.787 153.763L156.913 153.93L157.092 166.681L168.966 166.514L168.787 153.763Z" fill="#000477"/>
<path d="M167.356 52.1625L143.608 52.4961L143.788 65.2475L167.535 64.9139L167.356 52.1625Z" fill="#000477"/>
<path d="M178.754 13.9172L154.928 14.252L155.107 27.0034L178.933 26.6686L178.754 13.9172Z" fill="#000477"/>
<path d="M157.243 179.341L145.369 179.508L145.547 192.176L157.421 192.009L157.243 179.341Z" fill="#000477"/>
<path d="M156.004 90.425L144.13 90.5918L144.31 103.343L156.183 103.176L156.004 90.425Z" fill="#000477"/>
<path d="M145.03 154.096L133.078 154.264L133.257 167.015L145.209 166.847L145.03 154.096Z" fill="#000477"/>
<path d="M143.961 77.9125L108.261 78.4141L108.439 91.0822L144.139 90.5806L143.961 77.9125Z" fill="#000477"/>
<path d="M143.409 39.8168L107.709 40.3184L107.887 52.9864L143.587 52.4849L143.409 39.8168Z" fill="#000477"/>
<path d="M133.439 179.681L121.565 179.848L121.743 192.516L133.617 192.349L133.439 179.681Z" fill="#000477"/>
<path d="M121.209 154.433L109.335 154.6L109.515 167.351L121.389 167.184L121.209 154.433Z" fill="#000477"/>
<path d="M154.75 1.57191L95.2236 2.4082L95.4016 15.0763L154.928 14.24L154.75 1.57191Z" fill="#000477"/>
<path d="M109.683 180.014L97.7305 180.182L97.9084 192.85L109.861 192.682L109.683 180.014Z" fill="#000477"/>
<path d="M108.444 91.0918L96.4917 91.2598L96.6708 104.011L108.623 103.843L108.444 91.0918Z" fill="#000477"/>
<path d="M97.3744 154.773L85.5005 154.939L85.6796 167.691L97.5536 167.524L97.3744 154.773Z" fill="#000477"/>
<path d="M107.895 53.0168L84.0688 53.3516L84.248 66.103L108.074 65.7683L107.895 53.0168Z" fill="#000477"/>
<path d="M95.409 15.0754L71.583 15.4102L71.7622 28.1616L95.5882 27.8269L95.409 15.0754Z" fill="#000477"/>
<path d="M85.8471 180.35L73.895 180.518L74.073 193.186L86.0251 193.018L85.8471 180.35Z" fill="#000477"/>
<path d="M73.54 155.107L61.666 155.273L61.8452 168.025L73.7191 167.858L73.54 155.107Z" fill="#000477"/>
<path d="M84.2533 66.0871L60.4272 66.4219L60.6052 79.09L84.4312 78.7552L84.2533 66.0871Z" fill="#000477"/>
<path d="M71.7523 28.1781L48.0044 28.5117L48.1824 41.1798L71.9303 40.8462L71.7523 28.1781Z" fill="#000477"/>
<path d="M62.0268 180.685L50.1528 180.852L50.3308 193.52L62.2048 193.353L62.0268 180.685Z" fill="#000477"/>
<path d="M60.5951 79.1027L48.7212 79.2695L48.8992 91.9376L60.7731 91.7708L60.5951 79.1027Z" fill="#000477"/>
<path d="M62.3734 206.099L38.5474 206.434L38.7253 219.102L62.5514 218.767L62.3734 206.099Z" fill="#000477"/>
<path d="M49.8144 155.44L37.8623 155.607L38.0415 168.359L49.9935 168.191L49.8144 155.44Z" fill="#000477"/>
<path d="M227.958 127.587L25.6323 130.43L25.8103 143.098L228.136 140.255L227.958 127.587Z" fill="#000477"/>
<path d="M48.1879 41.1583L36.2358 41.3262L36.4138 53.9943L48.3659 53.8263L48.1879 41.1583Z" fill="#000477"/>
<path d="M38.1918 181.021L26.3179 181.188L26.4958 193.856L38.3698 193.689L38.1918 181.021Z" fill="#000477"/>
<path d="M36.4321 54.009L24.5581 54.1758L24.7373 66.9272L36.6112 66.7604L36.4321 54.009Z" fill="#000477"/>
<path d="M26.8725 219.269L14.9985 219.436L15.3557 244.855L27.2296 244.688L26.8725 219.269Z" fill="#000477"/>
<path d="M25.7988 143.111L13.9248 143.277L14.2819 168.697L26.1559 168.53L25.7988 143.111Z" fill="#000477"/>
<path d="M14.2719 168.691L2.31982 168.859L3.0329 219.615L14.985 219.447L14.2719 168.691Z" fill="#000477"/>
</svg>
