<svg width="250" height="226" viewBox="0 0 250 226" fill="none" xmlns="http://www.w3.org/2000/svg">
<g clip-path="url(#clip0_366_563)">
<path d="M238.125 64.5508H226.172V96.897H178.594V107.632H190.469V118.367H202.422V107.632H214.297V118.367H226.172V107.632H238.125V118.367H226.172V129.173H238.125V139.908H250V86.0914H238.125V64.5508Z" fill="#000477"/>
<path d="M226.172 150.644H214.297V139.909H202.422V129.174H190.469V139.909H178.594V129.174H166.641V118.368H178.594V107.633H166.641V96.8984H154.766V129.174H142.891V139.909H107.109V150.644H142.891V161.45H154.766V182.99H166.641V204.46H154.766V215.266H178.594V204.46H202.422V193.725H214.297V182.99H226.172V161.45H238.125V139.909H226.172V150.644Z" fill="#000477"/>
<path d="M226.172 129.174H214.297V139.909H226.172V129.174Z" fill="#000477"/>
<path d="M226.172 43.082H214.297V64.552H226.172V43.082Z" fill="#000477"/>
<path d="M214.297 118.367H202.422V129.173H214.297V118.367Z" fill="#000477"/>
<path d="M214.297 32.2754H202.422V43.081H214.297V32.2754Z" fill="#000477"/>
<path d="M190.469 118.367H178.594V129.173H190.469V118.367Z" fill="#000477"/>
<path d="M202.422 21.541H178.594V32.276H202.422V21.541Z" fill="#000477"/>
<path d="M178.594 10.8047H154.766V21.5397H178.594V10.8047Z" fill="#000477"/>
<path d="M154.766 86.0918H142.891V96.8974H154.766V86.0918Z" fill="#000477"/>
<path d="M154.766 215.266H95.2344V226.001H154.766V215.266Z" fill="#000477"/>
<path d="M142.891 96.8984H107.109V129.174H142.891V96.8984ZM130.938 118.368H119.062V107.633H130.938V118.368Z" fill="#000477"/>
<path d="M107.109 43.0812H119.063V10.8056H154.766V0H95.2344V10.8056H107.109V43.0812Z" fill="#000477"/>
<path d="M107.109 129.174H95.2344V139.909H107.109V129.174Z" fill="#000477"/>
<path d="M95.2344 204.459H71.4062V215.265H95.2344V204.459Z" fill="#000477"/>
<path d="M95.2344 96.8983H107.109V86.0927H142.891V75.3577H130.938V43.082H119.062V75.3577H107.109V64.552H95.2344V86.0927H71.4062V96.8983H83.3594V129.174H95.2344V96.8983Z" fill="#000477"/>
<path d="M95.2344 43.082H83.3594V64.552H95.2344V43.082Z" fill="#000477"/>
<path d="M95.2344 172.184H71.4062V182.989H95.2344V172.184Z" fill="#000477"/>
<path d="M71.4063 193.725H47.6562V204.46H71.4063V193.725Z" fill="#000477"/>
<path d="M71.4063 161.449H59.5312V172.184H71.4063V161.449Z" fill="#000477"/>
<path d="M71.4063 75.3574H47.6562V86.0924H71.4063V75.3574Z" fill="#000477"/>
<path d="M71.4063 43.0803H83.3594V21.5397H95.2344V10.8047H71.4063V21.5397H47.6562V32.2747H71.4063V43.0803Z" fill="#000477"/>
<path d="M59.5313 139.908H47.6562V161.449H59.5313V139.908Z" fill="#000477"/>
<path d="M47.6562 182.99H35.7031V193.725H47.6562V182.99Z" fill="#000477"/>
<path d="M47.6562 32.2754H35.7031V43.081H47.6562V32.2754Z" fill="#000477"/>
<path d="M35.7031 161.449H23.8281V182.99H35.7031V161.449Z" fill="#000477"/>
<path d="M23.8281 139.908H11.875V161.449H23.8281V139.908Z" fill="#000477"/>
<path d="M23.8281 75.3577H47.6563V64.552H35.7031V43.082H23.8281V64.552H11.875V86.0927H23.8281V75.3577Z" fill="#000477"/>
<path d="M11.875 86.0918H0V139.908H11.875V86.0918Z" fill="#000477"/>
</g>
<defs>
<clipPath id="clip0_366_563">
<rect width="250" height="226" fill="white"/>
</clipPath>
</defs>
</svg>
